HIERARCHY
ROOT joint_Root
{
	OFFSET 0.0 0.0 0.0
	CHANNELS 6 Xposition Yposition Zposition Zrotation Xrotation Yrotation 
	JOINT Hips
	{
		OFFSET 4.5925 91.4895 -427.239
		CHANNELS 6 Xposition Yposition Zposition Zrotation Xrotation Yrotation 
		JOINT Spine
		{
			OFFSET 15.7357 0.0 0.0
			CHANNELS 6 Xposition Yposition Zposition Zrotation Xrotation Yrotation 
			JOINT Chest
			{
				OFFSET 8.98455 -0.406207 0.0
				CHANNELS 6 Xposition Yposition Zposition Zrotation Xrotation Yrotation 
				JOINT Neck
				{
					OFFSET 16.3773 0.0 0.0
					CHANNELS 6 Xposition Yposition Zposition Zrotation Xrotation Yrotation 
					JOINT Head
					{
						OFFSET 6.45672 0.0 0.0
						CHANNELS 6 Xposition Yposition Zposition Zrotation Xrotation Yrotation 
						End Site
						{
							OFFSET 0.0 0.0 0.0
						}
					}
				}
				JOINT Shoulder_L
				{
					OFFSET 12.9942 -0.242716 4.98039
					CHANNELS 6 Xposition Yposition Zposition Zrotation Xrotation Yrotation 
					JOINT UpperArm_L
					{
						OFFSET 5.34809 0.0 0.0
						CHANNELS 6 Xposition Yposition Zposition Zrotation Xrotation Yrotation 
						JOINT LowerArm_L
						{
							OFFSET 24.3286 1.87007e-05 0.0
							CHANNELS 6 Xposition Yposition Zposition Zrotation Xrotation Yrotation 
							JOINT Hand_L
							{
								OFFSET 22.2916 0.0 0.0
								CHANNELS 6 Xposition Yposition Zposition Zrotation Xrotation Yrotation 
								End Site
								{
									OFFSET 0.0 0.0 0.0
								}
							}
						}
					}
				}
				JOINT Shoulder_R
				{
					OFFSET 12.9945 -0.242716 -4.98039
					CHANNELS 6 Xposition Yposition Zposition Zrotation Xrotation Yrotation 
					JOINT UpperArm_R
					{
						OFFSET -5.34813 0.0 0.0
						CHANNELS 6 Xposition Yposition Zposition Zrotation Xrotation Yrotation 
						JOINT LowerArm_R
						{
							OFFSET -24.3289 0.000322201 0.0
							CHANNELS 6 Xposition Yposition Zposition Zrotation Xrotation Yrotation 
							JOINT Hand_R
							{
								OFFSET -22.2915 -0.000108084 0.0
								CHANNELS 6 Xposition Yposition Zposition Zrotation Xrotation Yrotation 
								End Site
								{
									OFFSET 0.0 0.0 0.0
								}
							}
						}
					}
				}
			}
		}
		JOINT UpperLeg_L
		{
			OFFSET -2.19248 -6.46944 0.0
			CHANNELS 6 Xposition Yposition Zposition Zrotation Xrotation Yrotation 
			JOINT LowerLeg_L
			{
				OFFSET 39.0811 0.0 -1.23785e-05
				CHANNELS 6 Xposition Yposition Zposition Zrotation Xrotation Yrotation 
				JOINT Foot_L
				{
					OFFSET 40.9854 0.0 -1.26872e-05
					CHANNELS 6 Xposition Yposition Zposition Zrotation Xrotation Yrotation 
					JOINT Toes_L
					{
						OFFSET 11.7543 0.0 0.0
						CHANNELS 6 Xposition Yposition Zposition Zrotation Xrotation Yrotation 
						End Site
						{
							OFFSET 0.0 0.0 0.0
						}
					}
				}
			}
		}
		JOINT UpperLeg_R
		{
			OFFSET -2.19251 6.46944 0.0
			CHANNELS 6 Xposition Yposition Zposition Zrotation Xrotation Yrotation 
			JOINT LowerLeg_R
			{
				OFFSET -39.0811 -0.00228153 -0.0401928
				CHANNELS 6 Xposition Yposition Zposition Zrotation Xrotation Yrotation 
				JOINT Foot_R
				{
					OFFSET -40.9854 0.0 0.0
					CHANNELS 6 Xposition Yposition Zposition Zrotation Xrotation Yrotation 
					JOINT Toes_R
					{
						OFFSET -11.7543 0.0 0.0
						CHANNELS 6 Xposition Yposition Zposition Zrotation Xrotation Yrotation 
						End Site
						{
							OFFSET 0.0 0.0 0.0
						}
					}
				}
			}
		}
	}
}
MOTION
Frames:	6
Frame Time:	0.0333333
0.000000 0.000000 0.000000 0.000000 0.000000 -0.000000 0.903886 84.682600 -0.315659 87.895700 -5.641990 10.714000 15.735700 0.000005 -0.000001 90.537300 81.664400 -89.219800 8.984550 -0.406207 -0.000000 8.903920 0.168615 2.619480 16.377300 -0.000001 -0.000001 -0.219278 -4.666010 2.987440 6.456720 -0.000001 -0.000000 -2.558570 -5.023060 4.160490 12.994200 -0.242716 4.980390 -91.291300 4.032360 -72.226400 5.348090 -0.000007 -0.000001 -62.447900 26.064400 -16.989600 24.328600 0.000019 0.000005 6.762300 15.808400 -23.521200 22.291600 -0.000001 0.000005 10.212800 5.328100 -0.732649 12.994500 -0.242716 -4.980390 88.120100 9.689330 -78.964600 -5.348130 -0.000001 -0.000004 -57.726400 34.366700 -12.133500 -24.328900 0.000322 -0.000009 -0.401812 -0.889671 -24.233700 -22.291500 -0.000108 -0.000004 19.170100 5.456670 -4.880150 -2.192480 -6.469440 -0.000000 -174.101000 -12.449200 -10.906800 39.081100 -0.000007 -0.000012 -0.433922 0.301373 55.219700 40.985400 -0.000006 -0.000013 0.982816 1.794360 -83.304900 11.754300 -0.000000 0.000003 -0.000260 -0.002307 -16.663900 -2.192510 6.469440 -0.000001 175.957000 14.799000 168.655000 -39.081100 -0.002282 -0.040193 0.058398 -0.039117 54.662100 -40.985400 0.000008 0.000006 7.164810 9.190670 -82.154800 -11.754300 -0.000006 -0.000006 -0.001382 -0.020699 -17.414800
0.000000 0.000000 0.000000 0.000000 0.000000 -0.000000 0.974479 85.916400 0.658606 88.101300 -5.418460 11.581400 15.735700 0.000005 -0.000001 91.272100 82.008400 -89.390200 8.984550 -0.406207 -0.000000 8.210100 0.360573 3.734220 16.377300 -0.000001 -0.000001 1.776880 -4.864870 3.134170 6.456720 -0.000001 -0.000000 -1.121650 -5.175580 2.894330 12.994200 -0.242716 4.980390 -90.992000 2.972150 -71.532700 5.348090 -0.000007 -0.000001 -57.021400 18.699800 -21.268900 24.328600 0.000019 0.000005 8.067540 16.692500 -26.264800 22.291600 -0.000001 0.000005 8.418910 5.325370 -0.651273 12.994500 -0.242716 -4.980390 88.036300 9.351440 -78.085000 -5.348130 -0.000001 -0.000004 -60.046400 30.027600 -9.325010 -24.328900 0.000322 -0.000009 -0.342457 -0.852249 -21.841300 -22.291500 -0.000108 -0.000004 19.307500 5.427600 -3.857010 -2.192480 -6.469440 -0.000000 -174.428000 -11.389600 -7.201510 39.081100 -0.000007 -0.000012 -0.400479 0.326069 50.848500 40.985400 -0.000006 -0.000013 0.561877 1.081010 -81.841800 11.754300 -0.000000 0.000003 -0.000242 -0.002174 -16.659100 -2.192510 6.469440 -0.000001 175.138000 15.011300 172.390000 -39.081100 -0.002282 -0.040193 0.046882 -0.035926 50.534900 -40.985400 0.000008 0.000006 6.743100 9.698050 -80.589600 -11.754300 -0.000006 -0.000006 -0.119209 -0.161597 -17.537700
0.000000 0.000000 0.000000 0.000000 0.000000 -0.000000 0.939858 87.586200 1.501350 88.258700 -5.095210 11.071100 15.735700 0.000005 -0.000001 92.994000 83.074200 -90.576500 8.984550 -0.406207 -0.000000 6.057080 0.685571 4.793140 16.377300 -0.000001 -0.000001 4.515550 -5.463570 3.156200 6.456720 -0.000001 -0.000000 0.616525 -6.067450 1.734830 12.994200 -0.242716 4.980390 -90.534000 1.554410 -71.038700 5.348090 -0.000007 -0.000001 -49.716500 7.479090 -27.556100 24.328600 0.000019 0.000005 8.350770 15.496200 -28.785600 22.291600 -0.000001 0.000005 9.820580 5.306920 -0.123429 12.994500 -0.242716 -4.980390 87.974100 8.722750 -76.870000 -5.348130 -0.000001 -0.000004 -61.750800 27.374100 -6.304170 -24.328900 0.000322 -0.000009 -1.078430 -3.063900 -19.387000 -22.291500 -0.000108 -0.000004 18.585800 5.427770 -3.863380 -2.192480 -6.469440 -0.000000 -174.963000 -10.290400 -4.116850 39.081100 -0.000007 -0.000012 -0.344333 0.349375 44.584300 40.985400 -0.000006 -0.000013 0.151937 0.462663 -79.263300 11.754300 -0.000000 0.000003 -0.000203 -0.001874 -16.648200 -2.192510 6.469440 -0.000001 175.009000 15.041300 175.426000 -39.081100 -0.002282 -0.040193 0.035807 -0.033009 44.591600 -40.985400 0.000008 0.000006 6.266340 9.777300 -77.864900 -11.754300 -0.000006 -0.000006 -0.040525 -0.077175 -17.920400
0.000000 0.000000 0.000000 0.000000 0.000000 -0.000000 0.890975 88.965400 1.974970 88.326200 -4.781130 9.435870 15.735700 0.000005 -0.000001 94.623900 84.474400 -91.838500 8.984550 -0.406207 -0.000000 3.236630 0.779976 5.542750 16.377300 -0.000001 -0.000001 6.627270 -6.121220 3.464450 6.456720 -0.000001 -0.000000 2.112530 -7.013520 0.564997 12.994200 -0.242716 4.980390 -89.883900 -0.345717 -71.424800 5.348090 -0.000007 -0.000001 -42.665300 -7.562360 -34.189900 24.328600 0.000019 0.000005 5.928860 9.968580 -30.965500 22.291600 -0.000001 0.000005 12.566600 5.279180 0.646366 12.994500 -0.242716 -4.980390 88.029100 7.783970 -75.743600 -5.348130 -0.000001 -0.000004 -62.900600 26.266100 -3.416140 -24.328900 0.000322 -0.000009 -0.800347 -2.423430 -18.259100 -22.291500 -0.000108 -0.000004 17.200000 5.425930 -3.799280 -2.192480 -6.469440 -0.000000 -175.320000 -10.228600 -2.697220 39.081100 -0.000007 -0.000012 -0.275446 0.341460 38.892600 40.985400 -0.000006 -0.000013 0.118799 0.644463 -76.667600 11.754300 -0.000000 0.000003 -0.000139 -0.001365 -16.629500 -2.192510 6.469440 -0.000001 175.221000 15.696200 176.880000 -39.081100 -0.002282 -0.040193 0.025254 -0.027121 39.013100 -40.985400 0.000008 0.000006 5.825160 10.317400 -75.284900 -11.754300 -0.000006 -0.000006 -0.002933 -0.039839 -18.193300
0.000000 0.000000 0.000000 0.000000 0.000000 -0.000000 0.899940 89.830700 2.225540 88.236100 -5.113290 7.511150 15.735700 0.000005 -0.000001 95.233800 85.583500 -92.156200 8.984550 -0.406207 -0.000000 1.020890 0.624459 6.144480 16.377300 -0.000001 -0.000001 7.067930 -6.284450 3.985470 6.456720 -0.000001 -0.000000 2.685660 -7.299940 -0.246444 12.994200 -0.242716 4.980390 -89.122800 -2.754680 -72.326700 5.348090 -0.000007 -0.000001 -33.901400 -22.905100 -38.182300 24.328600 0.000019 0.000005 3.760300 5.345290 -35.208100 22.291600 -0.000001 0.000005 17.901000 5.298130 0.130449 12.994500 -0.242716 -4.980390 88.116500 7.184000 -75.266700 -5.348130 -0.000001 -0.000004 -62.587200 25.766400 -1.566370 -24.328900 0.000322 -0.000009 -0.360459 -1.065960 -18.634700 -22.291500 -0.000108 -0.000004 16.018200 5.422530 -3.684930 -2.192480 -6.469440 -0.000000 -175.325000 -11.358000 -2.463000 39.081100 -0.000007 -0.000012 -0.229150 0.327696 34.964600 40.985400 -0.000006 -0.000013 0.292025 1.402290 -74.854200 11.754300 -0.000000 0.000003 -0.000114 -0.001147 -16.621400 -2.192510 6.469440 -0.000001 175.392000 17.255800 177.208000 -39.081100 -0.002282 -0.040193 0.016587 -0.019082 34.867700 -40.985400 0.000008 0.000006 5.954820 12.240900 -73.701800 -11.754300 -0.000006 -0.000006 -0.003234 -0.043219 -18.330800
0.000000 0.000000 0.000000 0.000000 0.000000 -0.000000 1.058360 90.234400 2.334010 88.058200 -6.248310 6.294230 15.735700 0.000005 -0.000001 92.259000 86.060200 -88.817100 8.984550 -0.406207 -0.000000 0.114347 0.080949 6.879110 16.377300 -0.000001 -0.000001 6.463340 -5.574860 4.038200 6.456720 -0.000001 -0.000000 2.167360 -6.878230 0.142318 12.994200 -0.242716 4.980390 -88.196300 -5.680140 -72.351500 5.348090 -0.000007 -0.000001 -25.192100 -38.902100 -38.736200 24.328600 0.000019 0.000005 3.869630 4.636900 -39.914300 22.291600 -0.000001 0.000005 20.044700 5.353130 -1.470840 12.994500 -0.242716 -4.980390 88.117400 7.303710 -75.503400 -5.348130 -0.000001 -0.000004 -59.934000 25.894200 -1.301050 -24.328900 0.000322 -0.000009 -0.570075 -1.583950 -19.761600 -22.291500 -0.000108 -0.000004 15.836000 5.427040 -3.837520 -2.192480 -6.469440 -0.000000 -175.289000 -12.688200 -2.471430 39.081100 -0.000007 -0.000012 -0.201694 0.310597 32.999100 40.985400 -0.000006 -0.000013 0.390682 1.579060 -74.019800 11.754300 -0.000000 0.000003 -0.000109 -0.001107 -16.620000 -2.192510 6.469440 -0.000001 175.211000 19.195900 177.330000 -39.081100 -0.002282 -0.040193 0.007510 -0.006633 32.424300 -40.985400 0.000008 0.000006 6.430730 15.328900 -73.186900 -11.754300 -0.000006 -0.000006 -0.003065 -0.041335 -18.254100
